<svg width="42" height="42" viewBox="0 0 42 42" fill="none" xmlns="http://www.w3.org/2000/svg">
<rect width="42" height="42" rx="14" fill="#E9F1FF"/>
<path d="M30.4706 9.88232V28.8235H16.3529C15.7289 28.8235 15.1304 28.5741 14.6892 28.13C14.2479 27.686 14 27.0838 14 26.4559V12.25C14 11.622 14.2479 11.0198 14.6892 10.5758C15.1304 10.1318 15.7289 9.88232 16.3529 9.88232H30.4706Z" fill="#3B61FF"/>
<path d="M27.4853 13.1763V31.4117H13.8087C13.2042 31.4117 12.6244 31.1716 12.1969 30.7441C11.7695 30.3166 11.5293 29.7368 11.5293 29.1323V15.4557C11.5293 14.8512 11.7695 14.2714 12.1969 13.8439C12.6244 13.4164 13.2042 13.1763 13.8087 13.1763H27.4853Z" stroke="#2F2F2F" stroke-width="2.05882" stroke-linecap="round" stroke-linejoin="round"/>
<path d="M27.4853 26.8531H13.8087C13.2042 26.8531 12.6244 27.0932 12.1969 27.5207C11.7695 27.9482 11.5293 28.528 11.5293 29.1325M16.0882 17.7354H22.9265" stroke="#2F2F2F" stroke-width="2.05882" stroke-linecap="round" stroke-linejoin="round"/>
</svg>
