<svg width="240" height="91" viewBox="0 0 240 61" fill="none" xmlns="http://www.w3.org/2000/svg">
<path d="M7.94 14.27C7.62 14.36 5.53 17.15 6.32 20.03C7.19 23.19 10.74 24.55 10.74 24.55C10.74 24.55 13.1 21.51 12.18 18.13C11.4 15.25 8.37 14.15 7.94 14.27Z" fill="white"/>
<path d="M58.03 41.6201C58.2 41.3401 57.84 37.8701 55.31 36.2901C52.53 34.5501 49 35.9701 49 35.9701C49 35.9701 49.33 39.8101 52.29 41.6601C54.82 43.2501 57.79 42.0001 58.03 41.6201Z" fill="white"/>
<path d="M30.63 21.2799C30.67 21.5999 33.16 24.0599 36.12 23.6699C39.37 23.2499 41.2 19.9099 41.2 19.9099C41.2 19.9099 38.51 17.1599 35.04 17.5999C32.08 17.9899 30.58 20.8399 30.63 21.2799Z" fill="white"/>
<path d="M51.27 26.3799C51.58 26.4799 54.84 25.2299 55.72 22.3699C56.68 19.2399 54.4 16.1899 54.4 16.1899C54.4 16.1899 50.78 17.4999 49.75 20.8399C48.87 23.6999 50.85 26.2499 51.27 26.3799Z" fill="white"/>
<path d="M23.42 10.35C23.74 10.27 25.9 7.54 25.19 4.63C24.42 1.45 20.9 0 20.9 0C20.9 0 18.46 2.98 19.28 6.37C19.99 9.27 22.99 10.46 23.42 10.35Z" fill="#0086D1"/>
<path d="M9.31999 32.9901C9.08999 32.7501 5.63999 32.2701 3.48999 34.3501C1.12999 36.6301 1.66999 40.4001 1.66999 40.4001C1.66999 40.4001 5.46999 41.0001 7.97999 38.5701C10.12 36.4901 9.62999 33.3001 9.31999 32.9901Z" fill="white"/>
<path d="M17.01 40.2C16.68 40.25 14.26 42.76 14.69 45.72C15.15 48.97 18.51 50.75 18.51 50.75C18.51 50.75 21.23 48.03 20.74 44.56C20.32 41.6 17.45 40.14 17.01 40.2Z" fill="white"/>
<path d="M41.63 5.00007C41.36 4.81007 37.88 5.07007 36.21 7.55007C34.39 10.2701 35.69 13.8501 35.69 13.8501C35.69 13.8501 39.54 13.6401 41.48 10.7401C43.16 8.25007 42 5.25007 41.63 5.00007Z" fill="#0086D1"/>
<path d="M9.54 30.0101C9.68 29.7201 8.99 26.3001 6.31 24.9701C3.38 23.5001 0 25.2601 0 25.2601C0 25.2601 0.7 29.0401 3.83 30.6001C6.5 31.9301 9.34 30.4001 9.54 30.0101Z" fill="#0086D1"/>
<path d="M15.2 34.0399C15.53 34.0299 18.22 31.8099 18.14 28.8199C18.05 25.5399 14.92 23.3899 14.92 23.3899C14.92 23.3899 11.9 25.7799 12 29.2799C12.07 32.2599 14.76 34.0499 15.2 34.0399Z" fill="white"/>
<path d="M29.07 20.69C29.39 20.63 31.69 18 31.13 15.07C30.52 11.85 27.08 10.22 27.08 10.22C27.08 10.22 24.48 13.07 25.14 16.5C25.7 19.44 28.64 20.77 29.07 20.69Z" fill="white"/>
<path d="M25.78 21.3899C25.86 21.0699 24.39 17.8999 21.48 17.2199C18.29 16.4699 15.4 18.9599 15.4 18.9599C15.4 18.9599 16.95 22.4799 20.35 23.2799C23.27 23.9599 25.68 21.8099 25.78 21.3899Z" fill="white"/>
<path d="M21.16 14.7201C21.31 14.4301 20.67 11.0001 18.02 9.63011C15.1 8.12011 11.7 9.81011 11.7 9.81011C11.7 9.81011 12.33 13.6101 15.44 15.2201C18.09 16.6001 20.95 15.1101 21.16 14.7201Z" fill="white"/>
<path d="M40.02 16.44C40.13 16.75 43.09 18.6 45.9 17.57C48.98 16.45 50.03 12.79 50.03 12.79C50.03 12.79 46.81 10.69 43.52 11.88C40.71 12.91 39.87 16.03 40.02 16.44Z" fill="white"/>
<path d="M8.72002 48.8101C9.03002 48.9001 12.27 47.5801 13.08 44.7101C13.98 41.5601 11.63 38.5601 11.63 38.5601C11.63 38.5601 8.04002 39.9401 7.09002 43.3101C6.26002 46.1801 8.29002 48.6901 8.72002 48.8101Z" fill="#0086D1"/>
<path d="M33.09 25.73C33.31 25.48 36.72 24.79 38.99 26.74C41.48 28.88 41.18 32.67 41.18 32.67C41.18 32.67 37.42 33.5 34.76 31.23C32.5 29.27 32.81 26.06 33.09 25.73Z" fill="white"/>
<path d="M48.79 30.67C48.8 31 51.02 33.68 54 33.61C57.28 33.53 59.43 30.39 59.43 30.39C59.43 30.39 57.04 27.37 53.54 27.47C50.56 27.54 48.78 30.23 48.79 30.67Z" fill="#0086D1"/>
<path d="M44.5 38.7201C44.2 38.8601 42.66 41.9901 43.95 44.6801C45.37 47.6301 49.12 48.3201 49.12 48.3201C49.12 48.3201 50.89 44.9001 49.37 41.7501C48.08 39.0601 44.9 38.5301 44.5 38.7201Z" fill="#0086D1"/>
<path d="M44.69 30.8401C45.01 30.9001 48.11 29.3001 48.68 26.3701C49.3 23.1501 46.69 20.3701 46.69 20.3701C46.69 20.3701 43.23 22.0601 42.58 25.5001C42.01 28.4401 44.26 30.7501 44.69 30.8401Z" fill="white"/>
<path d="M37.57 50.5C37.89 50.56 41 48.96 41.56 46.03C42.17 42.81 39.57 40.04 39.57 40.04C39.57 40.04 36.11 41.73 35.46 45.17C34.9 48.09 37.14 50.42 37.57 50.5Z" fill="white"/>
<path d="M30.91 10.8099C31.24 10.8299 34.14 8.90994 34.38 5.92994C34.63 2.65994 31.74 0.189941 31.74 0.189941C31.74 0.189941 28.49 2.25994 28.22 5.73994C27.98 8.71994 30.47 10.7799 30.91 10.8099Z" fill="white"/>
<path d="M26.34 25.87C26.09 25.66 22.6 25.53 20.68 27.82C18.57 30.33 19.48 34.03 19.48 34.03C19.48 34.03 23.32 34.24 25.57 31.56C27.5 29.27 26.68 26.16 26.34 25.87Z" fill="#0086D1"/>
<path d="M46.96 34.1001C46.88 33.5101 46.46 33.1501 45.98 33.2801C40.53 35.2601 37.16 35.6201 31.82 36.1101L30.93 35.9101C30.48 35.8801 30.31 35.5101 30.26 35.2601L30.02 24.3301C30.02 23.3701 29.63 22.6001 29.15 22.6001C28.67 22.6001 28.29 23.3701 28.29 24.3301L27.77 35.1801C27.28 36.7101 25.95 36.5701 25.95 36.5701L25.96 36.6001C21.16 36.7001 18.74 36.7701 13.76 35.4401C13.07 35.2701 12.53 35.1301 12.53 35.6301C12.54 36.1401 13.1 36.9001 13.82 37.0801C19.51 39.4001 22.29 38.9601 27.53 40.2201L26.34 59.2101C26.24 60.5201 25.47 60.8101 25.47 60.8101H32.17C31.81 60.6501 31.47 59.8301 31.32 59.3901L30.38 40.0901C36.42 38.7901 40.17 37.6601 46.26 35.3301C46.71 35.2101 47.03 34.7001 46.96 34.1001Z" fill="white"/>
<path d="M79.73 49.7598H81.98L84.97 57.6798L87.91 49.7598H90.16V59.2998H88.8V51.0498H88.77L85.62 59.2998H84.28L81.12 51.0498H81.1V59.2998H79.74V49.7598H79.73Z" fill="white" stroke="white" stroke-width="0.1227"/>
<path d="M96.3 55.3098L92.57 49.7598H94.17L97.01 54.0398L99.78 49.7598H101.38L97.67 55.3098V59.2998H96.3V55.3098Z" fill="white" stroke="white" stroke-width="0.1227"/>
<path d="M104.73 54.5301C104.73 52.5901 105.77 50.7901 107.87 50.8001C109.97 50.7901 111.01 52.5901 111.01 54.5301C111.01 56.4301 110.07 58.2601 107.87 58.2601C105.67 58.2601 104.73 56.4301 104.73 54.5301ZM103.28 54.5301C103.28 57.4201 104.96 59.4601 107.87 59.4601C110.78 59.4601 112.46 57.4201 112.46 54.5301C112.46 51.7001 110.77 49.6001 107.87 49.6001C104.98 49.6001 103.28 51.7001 103.28 54.5301Z" fill="white" stroke="white" stroke-width="0.1227"/>
<path d="M115.41 49.7598H117.27L121.48 57.4398H121.51V49.7598H122.88V59.2998H121.13L116.82 51.4598H116.79V59.2998H115.42V49.7598H115.41Z" fill="white" stroke="white" stroke-width="0.1227"/>
<path d="M133.55 51.4601C132.88 51.0201 132.16 50.8001 130.93 50.8001C128.73 50.8001 127.27 52.4001 127.27 54.5301C127.27 56.7701 128.88 58.2601 130.86 58.2601C131.8 58.2601 132.05 58.1601 132.39 58.0901V55.2001H130.38V54.0801H133.75V59.0401C133.23 59.2201 132.33 59.4601 130.84 59.4601C127.82 59.4601 125.81 57.5201 125.81 54.4901C125.81 51.5601 127.94 49.6001 130.85 49.6001C132.24 49.6001 132.86 49.8001 133.65 50.0801L133.55 51.4601Z" fill="white" stroke="white" stroke-width="0.1227"/>
<path d="M136.27 58.1198C136.57 58.2298 136.87 58.2598 137.13 58.2598C138.36 58.2598 138.69 57.5598 138.69 56.3998V49.7598H140.06V56.8398C140.06 58.1798 139.44 59.4598 137.38 59.4598C136.94 59.4598 136.56 59.4098 136.27 59.2998V58.1198Z" fill="white" stroke="white" stroke-width="0.1227"/>
<path d="M143.53 49.7598H144.9V59.2998H143.53V49.7598Z" fill="white" stroke="white" stroke-width="0.1227"/>
<path d="M160.59 55.3498C160.59 58.0298 159.24 59.4598 156.89 59.4598C154.54 59.4598 153.19 58.0298 153.19 55.3498V49.7598H154.56V55.1698C154.56 56.9998 155.13 58.2598 156.89 58.2598C158.65 58.2598 159.23 56.9998 159.23 55.1698V49.7598H160.6V55.3498H160.59Z" fill="white" stroke="white" stroke-width="0.1227"/>
<path d="M164.05 49.7598H165.9L170.11 57.4398H170.13V49.7598H171.5V59.2998H169.75L165.43 51.4598H165.4V59.2998H164.03V49.7598H164.05Z" fill="white" stroke="white" stroke-width="0.1227"/>
<path d="M174.95 49.7598H176.32V59.2998H174.95V49.7598Z" fill="white" stroke="white" stroke-width="0.1227"/>
<path d="M183.93 59.2998H182.22L178.63 49.7598H180.16L183.1 58.0898H183.13L186.15 49.7598H187.58L183.93 59.2998Z" fill="white" stroke="white" stroke-width="0.1227"/>
<path d="M189.97 49.7598H195.31V50.9598H191.34V53.7498H194.96V54.9498H191.34V58.0898H195.31V59.2898H189.97V49.7598Z" fill="white" stroke="white" stroke-width="0.1227"/>
<path d="M199.81 50.9698H201.12C202.38 50.9698 203.03 51.5098 203.03 52.3798C203.03 53.2998 202.26 53.8698 200.97 53.8698H199.81V50.9698ZM198.44 59.2998H199.81V55.0598H200.63C201.35 55.0598 201.8 55.0598 202.23 55.9898L203.69 59.2998H205.25L203.45 55.4998C203.15 54.9198 202.94 54.7098 202.52 54.5398V54.5098C203.62 54.3198 204.49 53.4998 204.49 52.3398C204.49 50.0598 202.67 49.7598 200.79 49.7598H198.45V59.2998H198.44Z" fill="white" stroke="white" stroke-width="0.1227"/>
<path d="M212.22 51.2001C211.52 50.9201 211.14 50.8001 210.43 50.8001C209.66 50.8001 208.76 51.0701 208.76 52.0701C208.76 53.9001 212.86 53.4801 212.86 56.6201C212.86 58.6501 211.29 59.4601 209.38 59.4601C208.71 59.4601 208.05 59.2701 207.43 59.0601L207.56 57.7901C208.02 57.9801 208.85 58.2601 209.54 58.2601C210.32 58.2601 211.41 57.8201 211.41 56.7001C211.41 54.5701 207.31 55.1601 207.31 52.1901C207.31 50.5001 208.65 49.6001 210.37 49.6001C211 49.6001 211.75 49.7101 212.4 49.9401L212.22 51.2001Z" fill="white" stroke="white" stroke-width="0.1227"/>
<path d="M215.75 49.7598H217.12V59.2998H215.75V49.7598Z" fill="white" stroke="white" stroke-width="0.1227"/>
<path d="M222.46 50.97H219.5V49.77H226.79V50.97H223.82V59.3H222.45V50.97H222.46Z" fill="white" stroke="white" stroke-width="0.1227"/>
<path d="M231.85 55.3098L228.12 49.7598H229.72L232.56 54.0398L235.33 49.7598H236.93L233.22 55.3098V59.2998H231.85V55.3098Z" fill="white" stroke="white" stroke-width="0.1227"/>
<path d="M202.49 33.9501C202.49 32.9601 202.18 32.1901 201.57 31.6401C200.96 31.0901 200.18 30.8201 199.24 30.8201H180.92V33.7401L198.51 33.7501V42.4301H202.49V33.9501Z" fill="white"/>
<path d="M202.49 17.9499V11.4199H198.51V28.7499H202.49V20.6399H207.21V17.9499H202.49Z" fill="white"/>
<path d="M232.92 16.0799L232.93 24.3699C232.93 26.5899 232.87 28.4299 232.73 29.8799C232.6 31.3599 232.22 32.6199 231.58 33.6699H234.94C235.53 32.6999 235.99 31.4699 236.32 29.9599C236.65 28.4599 236.81 26.6799 236.81 24.6399C236.81 24.6399 236.81 16.1399 236.81 16.0699C236.77 15.1799 236.48 14.4799 235.91 13.9699C235.3 13.4199 234.52 13.1499 233.58 13.1399H214.81V16.0599L232.92 16.0799Z" fill="white"/>
<path d="M228.71 36.2799V23.7H224.88V36.2799H224.87H221.54V23.7H217.71V36.2799H212.32V39.07V39.08H239.33V39.07V36.2799H228.71Z" fill="white"/>
<path d="M165.59 11.4199V19.5299H161.58V11.4199H157.83V27.6899C157.39 27.9099 156.79 28.1099 156.03 28.2899C155.27 28.4599 154.45 28.5499 153.55 28.5499H147.49V15.0499H154.45V12.3999H143.57L143.58 28.1599C143.58 29.1499 143.89 29.9199 144.5 30.4699C145.11 31.0199 145.89 31.2899 146.84 31.2899H153.37C154.33 31.2899 155.19 31.1599 155.94 30.9599C156.59 30.7699 157.28 30.4399 157.85 30.0299V41.0199H161.6V22.4199H165.61V41.0199H169.36V11.4199H165.59Z" fill="white"/>
<path d="M129.78 11.51H134.07C134.03 11.53 134.03 40.96 134.07 41.01H129.83C129.88 40.96 129.82 11.53 129.78 11.51ZM120.09 15.09V18.08C120.09 20.86 120.77 23.32 122.37 25.46C123.98 27.6 125.75 28.85 127.69 29.21L125.8 31.25C124.38 30.79 122.69 30.33 121.02 28.92C119.35 27.51 118.28 25.85 117.81 24.59C117.34 25.87 116.27 27.53 114.6 28.91C112.93 30.29 111.26 30.84 109.82 31.25L107.93 29.21C109.89 28.85 111.67 27.6 113.27 25.46C114.86 23.33 115.53 20.87 115.53 18.08V15.09C115.53 15.09 109.81 15.1 109.79 15.12V12.47H125.82V15.12C125.81 15.1 120.09 15.09 120.09 15.09Z" fill="white"/>
<path d="M193.32 15.92H195.02V13.3H188.33V10.5H184.22V11.8V13.3H177.55V15.92H179.24H181.86C180.92 16.54 180.17 17.31 179.61 18.25C179.05 19.19 178.77 20.22 178.77 21.31C178.77 23.18 179.5 24.77 180.98 26.1C182.45 27.43 184.22 28.09 186.29 28.09C188.38 28.09 190.15 27.43 191.61 26.1C193.07 24.77 193.79 23.17 193.79 21.31C193.79 20.21 193.51 19.19 192.95 18.25C192.43 17.36 191.72 16.63 190.86 16.03C190.81 15.99 190.76 15.95 190.7 15.91H193.27C193.29 15.92 193.31 15.92 193.32 15.92ZM188.85 24.2C188.13 25.01 187.28 25.42 186.28 25.42C185.31 25.42 184.46 25.01 183.74 24.2C183.02 23.39 182.65 22.43 182.65 21.32C182.65 20.21 183.01 19.25 183.74 18.44C184.47 17.62 185.32 17.22 186.28 17.22C187.28 17.22 188.13 17.62 188.85 18.44C189.56 19.25 189.92 20.21 189.92 21.32C189.92 22.42 189.56 23.39 188.85 24.2Z" fill="white"/>
<path d="M101.28 11.51H96.94C96.98 11.53 96.96 14.64 96.96 14.64H92.04V12.29H77.29C77.33 12.31 77.28 23.16 77.28 23.16C77.28 24.12 77.55 24.87 78.11 25.41C78.67 25.94 79.45 26.21 80.45 26.21H92.02V23.52H96.94V27.74H101.24C101.25 27.73 101.23 11.53 101.28 11.51ZM87.73 23.58H81.57V14.91H87.73V23.58ZM96.95 20.63H92.03V17.51H96.95V20.63Z" fill="white"/>
<path d="M98.33 30.29C96.73 28.95 94.78 28.27 92.5 28.27C90.24 28.27 88.3 28.94 86.68 30.29C85.06 31.64 84.25 33.28 84.25 35.2C84.25 37.12 85.06 38.76 86.68 40.11C88.29 41.46 90.23 42.13 92.5 42.13C94.79 42.13 96.73 41.46 98.33 40.11C99.93 38.77 100.73 37.13 100.73 35.2C100.73 33.28 99.93 31.64 98.33 30.29ZM95.21 38.31C94.47 39.19 93.57 39.63 92.5 39.63C91.45 39.63 90.56 39.19 89.81 38.31C89.06 37.43 88.69 36.39 88.69 35.2C88.69 34.01 89.06 32.96 89.81 32.06C90.56 31.16 91.46 30.71 92.5 30.71C93.57 30.71 94.47 31.16 95.21 32.06C95.95 32.96 96.32 34.01 96.32 35.2C96.31 36.39 95.94 37.43 95.21 38.31Z" fill="white"/>
</svg>
