<svg width="44" height="55" viewBox="0 0 44 55" fill="none" xmlns="http://www.w3.org/2000/svg">
<path d="M13.1667 7.63867H7.58333C6.10254 7.63867 4.6824 8.23274 3.63532 9.29018C2.58824 10.3476 2 11.7818 2 13.2773V47.109C2 48.6044 2.58824 50.0386 3.63532 51.0961C4.6824 52.1535 6.10254 52.7476 7.58333 52.7476H35.5C36.9808 52.7476 38.4009 52.1535 39.448 51.0961C40.4951 50.0386 41.0833 48.6044 41.0833 47.109V13.2773C41.0833 11.7818 40.4951 10.3476 39.448 9.29018C38.4009 8.23274 36.9808 7.63867 35.5 7.63867H29.9167" stroke="#9F9F9F" stroke-width="4" stroke-linecap="round" stroke-linejoin="round"/>
<path d="M24.3334 2H18.7501C15.6665 2 13.1667 4.52449 13.1667 7.63861C13.1667 10.7527 15.6665 13.2772 18.7501 13.2772H24.3334C27.417 13.2772 29.9167 10.7527 29.9167 7.63861C29.9167 4.52449 27.417 2 24.3334 2Z" stroke="#9F9F9F" stroke-width="4" stroke-linecap="round" stroke-linejoin="round"/>
<path d="M13.1667 27.3738H13.1947M20.8055 27.3738H29.9167M13.1667 38.651H13.1947M20.8055 38.651H29.9167" stroke="#9F9F9F" stroke-width="4" stroke-linecap="round" stroke-linejoin="round"/>
</svg>
